<svg xmlns="http://www.w3.org/2000/svg" viewBox="0 0 32 32"><defs><linearGradient id="a" x1="8.393" y1="1.106" x2="11.125" y2="18.354" gradientUnits="userSpaceOnUse"><stop offset=".012" stop-color="#00b7f0"/><stop offset=".339" stop-color="#009de5"/><stop offset=".755" stop-color="#0082d9"/><stop offset="1" stop-color="#0078d4"/></linearGradient><linearGradient id="b" x1="14.379" y1="26.645" x2="29.546" y2="17.889" gradientUnits="userSpaceOnUse"><stop offset="0" stop-color="#0078d4"/><stop offset=".37" stop-color="#007ad5"/><stop offset=".573" stop-color="#0082d9"/><stop offset=".735" stop-color="#0090df"/><stop offset=".875" stop-color="#00a3e7"/><stop offset="1" stop-color="#00bcf2"/></linearGradient><linearGradient id="c" x1="10.45" y1="6.689" x2="24.291" y2="30.662" gradientUnits="userSpaceOnUse"><stop offset="0" stop-color="#00b7f0"/><stop offset="1" stop-color="#007cc1"/></linearGradient></defs><g data-name="STYLE = COLOR"><g data-name="back cicrcles"><ellipse cx="9.759" cy="9.73" rx="8.759" ry="8.73" fill="url(#a)"/><ellipse cx="21.963" cy="22.267" rx="8.762" ry="8.733" fill="url(#b)"/></g><path d="M1.032 10.477a8.758 8.758 0 109.817-9.41 15.915 15.915 0 00-9.817 9.41z" fill-rule="evenodd" opacity=".05"/><path d="M30.702 21.64a8.761 8.761 0 10-9.533 9.324 15.915 15.915 0 009.533-9.325z" fill-rule="evenodd" opacity=".05"/><path d="M1.442 12.473A8.755 8.755 0 1012.84 1.556 14.893 14.893 0 001.442 12.473z" fill-rule="evenodd" opacity=".1"/><path d="M30.304 19.588a8.758 8.758 0 10-11.192 10.939 14.893 14.893 0 0011.192-10.939z" fill-rule="evenodd" opacity=".1"/><path d="M1.764 13.301a8.753 8.753 0 1011.894-11.39 14.387 14.387 0 00-11.894 11.39z" fill-rule="evenodd" opacity=".1"/><path d="M29.981 18.743a8.756 8.756 0 10-11.713 11.444 14.386 14.386 0 0011.713-11.444z" fill-rule="evenodd" opacity=".1"/><ellipse cx="15.864" cy="16.065" rx="13.873" ry="13.827" fill="url(#c)"/><path d="M11.963 15.585a4.358 4.358 0 01-1.367-1.442 3.986 3.986 0 01-.468-1.993 3.582 3.582 0 01.844-2.412 5.08 5.08 0 012.2-1.47 8.495 8.495 0 012.88-.485 11.184 11.184 0 011.916.147 6.918 6.918 0 011.329.343 2.576 2.576 0 011.04.664 1.344 1.344 0 01.321.893 1.294 1.294 0 01-.338.931 1.124 1.124 0 01-.849.354 1.529 1.529 0 01-.631-.142 11.434 11.434 0 00-1.503-.55 5.455 5.455 0 00-1.448-.18 3.305 3.305 0 00-1.814.464 1.509 1.509 0 00-.724 1.355 1.363 1.363 0 00.376.953 3.426 3.426 0 001.013.725q.637.316 1.9.838a1.97 1.97 0 01.272.109 13.497 13.497 0 012.352 1.209 4.742 4.742 0 011.448 1.486 3.92 3.92 0 01.523 2.064 4.151 4.151 0 01-.724 2.488 4.304 4.304 0 01-2.025 1.503 8.537 8.537 0 01-3.044.496 9.59 9.59 0 01-4.149-.785 2.258 2.258 0 01-.854-.664 1.493 1.493 0 01-.278-.904 1.181 1.181 0 01.365-.92 1.345 1.345 0 01.941-.332 2.407 2.407 0 011.1.283q.632.316.997.474a5.008 5.008 0 00.86.272 4.92 4.92 0 001.105.114 2.95 2.95 0 001.857-.495 1.635 1.635 0 00.626-1.356 1.44 1.44 0 00-.392-.99 4.167 4.167 0 00-1.154-.84q-.763-.402-2.146-.98a13.291 13.291 0 01-2.357-1.225" fill="#fff" fill-rule="evenodd"/><path fill="none" d="M0 0h32v32H0z"/></g></svg>