<svg xmlns="http://www.w3.org/2000/svg" viewBox="0 0 64 64"><title>Publisher_64x</title><rect x="39" y="11" width="20" height="42" rx="2.36546" fill="#038387"/><path d="M47.71511,56H19.28489A2.28489,2.28489,0,0,1,17,53.71511V44l18-4,15,4v9.71511A2.28489,2.28489,0,0,1,47.71511,56Z" fill="#038387"/><path d="M47.64286,8.00024H19.35714A2.36047,2.36047,0,0,0,17,10.36388V32l17,2.00024L50,32V10.36388A2.36043,2.36043,0,0,0,47.64286,8.00024Z" fill="#37c6d0"/><rect x="17" y="32" width="33" height="12" fill="#1a9ba1"/><path d="M33,20.33008V46.66992a1.73444,1.73444,0,0,1-.04.3999A2.31378,2.31378,0,0,1,30.66992,49H17V18H30.66992A2.326,2.326,0,0,1,33,20.33008Z" opacity=".2"/><path d="M34,20.33008V44.66992A3.36171,3.36171,0,0,1,30.66992,48H17V17H30.66992A3.34177,3.34177,0,0,1,34,20.33008Z" opacity=".1"/><path d="M33,20.33008V44.66992A2.326,2.326,0,0,1,30.66992,47H17V18H30.66992A2.326,2.326,0,0,1,33,20.33008Z" opacity=".2"/><path d="M32,20.33008V44.66992A2.326,2.326,0,0,1,29.66992,47H17V18H29.66992A2.326,2.326,0,0,1,32,20.33008Z" opacity=".1"/><rect x="4.00021" y="18" width="28" height="28" rx="2.33362" fill="#038387"/><path d="M18.46276,24.15765a6.16432,6.16432,0,0,1,4.15281,1.24748,4.519,4.519,0,0,1,1.44056,3.61227,5.13024,5.13024,0,0,1-.71236,2.70107,4.8126,4.8126,0,0,1-2.02628,1.83868,6.72787,6.72787,0,0,1-3.0447.65629H15.39167V39.7132h-2.955V24.15765ZM15.39167,31.8378h2.54341A3.24545,3.24545,0,0,0,20.183,31.149a2.57776,2.57776,0,0,0,.75986-2.01224q0-2.5709-2.91278-2.5709H15.39167Z" fill="#fff"/><rect x="50" y="11.00024" width="1" height="42" opacity=".2"/><rect x="51" y="11.00024" width="1" height="42" opacity=".1"/></svg>
