<svg xmlns="http://www.w3.org/2000/svg" viewBox="0 0 32 32"><path d="M5.262 2h14.476A1.262 1.262 0 0121 3.262V11H4V3.262A1.262 1.262 0 015.262 2z" fill="#33c481"/><path d="M11 21h19.738A1.262 1.262 0 0132 22.262v6.477A1.262 1.262 0 0130.738 30H12.262A1.262 1.262 0 0111 28.738V21z" fill="#185c37"/><path d="M4 11h20.6a1.4 1.4 0 011.4 1.4V21H5.4A1.4 1.4 0 014 19.6V11z" fill="#21a366"/><path d="M11 20v6h5.666A1.337 1.337 0 0018 24.667V8.333A1.337 1.337 0 0016.666 7H4v11.727A1.273 1.273 0 005.273 20H11z" opacity=".1"/><path d="M11 20v7h4.666A1.337 1.337 0 0017 25.667V9.333A1.337 1.337 0 0015.666 8H4v10.727A1.273 1.273 0 005.273 20H11z" opacity=".2"/><path d="M11 20v5h4.666A1.337 1.337 0 0017 23.667V9.333A1.337 1.337 0 0015.666 8H4v10.727A1.273 1.273 0 005.273 20H11z" opacity=".2"/><path d="M11 20v5h3.666A1.337 1.337 0 0016 23.667V9.333A1.337 1.337 0 0014.666 8H4v10.727A1.273 1.273 0 005.273 20H11z" opacity=".2"/><rect y="8" width="16" height="16" rx="1.333" fill="#107c41"/><path d="M8.035 11a4.163 4.163 0 012.752.8 2.878 2.878 0 01.955 2.329 2.729 2.729 0 01-.472 1.586A3.165 3.165 0 019.927 16.9a4.567 4.567 0 01-2.018.423H6v3.667H4.042V11zM6 15.678h1.685a2.192 2.192 0 001.49-.444 1.1 1.1 0 00.5-1.024q0-1.658-1.931-1.657H6z" fill="#f9f7f7"/><path fill="none" d="M0 0h32v32H0z"/></svg>