<svg xmlns="http://www.w3.org/2000/svg" viewBox="0 0 48 48"><defs><linearGradient id="a" x1="28.5" y1="25" x2="28.5" y2="44" gradientUnits="userSpaceOnUse"><stop offset="0" stop-color="#35b8f1"/><stop offset="1" stop-color="#28a8ea"/></linearGradient></defs><path d="M45 25a.96.96 0 0 0-.458-.825h-.005l-.018-.01-14.9-8.82a2.026 2.026 0 0 0-.2-.119 2 2 0 0 0-1.834 0 2.026 2.026 0 0 0-.2.119l-14.9 8.82-.018.01a.971.971 0 0 0 .023 1.663l14.9 8.82a2.241 2.241 0 0 0 .2.119 2 2 0 0 0 1.834 0 2.241 2.241 0 0 0 .2-.119l14.9-8.82A.959.959 0 0 0 45 25z" fill="#0a2767"/><path fill="#0364b8" d="M14.222 19.111H24v8.963h-9.778zM43 10V5.9A1.858 1.858 0 0 0 41.187 4H15.813A1.858 1.858 0 0 0 14 5.9V10l15 4z"/><path fill="#0078d4" d="M14 10h10v9H14z"/><path fill="#28a8ea" d="M34 10H24v9l10 9h9v-9l-9-9z"/><path fill="#0078d4" d="M24 19h10v9H24z"/><path fill="#0364b8" d="M24 28h10v9H24z"/><path fill="#14447d" d="M14.222 28.074H24v8.148h-9.778z"/><path fill="#0078d4" d="M34 28h9v9h-9z"/><path d="M44.542 25.783l-.019.01-14.9 8.38c-.065.04-.131.078-.2.112a2.077 2.077 0 0 1-.808.2l-.814-.476a2.033 2.033 0 0 1-.2-.115l-15.1-8.618h-.007L12 25v16.964A2.05 2.05 0 0 0 14.063 44h28.906c.017 0 .032-.008.05-.008a2.531 2.531 0 0 0 .7-.146A2.019 2.019 0 0 0 44 43.7c.067-.038.182-.121.182-.121A2.019 2.019 0 0 0 45 41.964V25a.9.9 0 0 1-.458.783z" fill="url(#a)"/><path d="M44.2 24.933v1.04L28.62 36.7 12.49 25.283a.01.01 0 0 0-.01-.01l-1.48-.89v-.75l.61-.01 1.29.74.03.01.11.07s15.16 8.65 15.2 8.67l.58.34c.05-.02.1-.04.16-.06.03-.02 15.05-8.47 15.05-8.47z" fill="#0a2767" opacity=".5"/><path fill="none" d="M0 0h48v48H0z"/><path d="M44.542 25.783l-.019.011-14.9 8.38c-.065.04-.131.078-.2.112a2.089 2.089 0 0 1-1.834 0 2.264 2.264 0 0 1-.2-.112l-14.9-8.38-.018-.011A.9.9 0 0 1 12 25v16.964A2.049 2.049 0 0 0 14.062 44h28.876A2.049 2.049 0 0 0 45 41.964V25a.9.9 0 0 1-.458.783z" fill="#1490df"/><path d="M29.84 34.05l-.223.125a2.183 2.183 0 0 1-.2.113 2.071 2.071 0 0 1-.786.208L34.3 41.2l9.889 2.383a2.038 2.038 0 0 0 .627-.783z" opacity=".1"/><path d="M30.85 33.482l-1.233.693a2.183 2.183 0 0 1-.2.113 2.071 2.071 0 0 1-.786.208l2.656 7.323 12.905 1.761A2.022 2.022 0 0 0 45 41.964v-.219z" opacity=".05"/><path d="M14.09 44h28.845a2.074 2.074 0 0 0 1.235-.4L27.8 34.011a2.033 2.033 0 0 1-.2-.115l-15.1-8.618h-.007L12 25v16.906A2.092 2.092 0 0 0 14.09 44z" fill="#28a8ea"/><path d="M26 13.833v21.33a1.838 1.838 0 0 1-1.15 1.7 1.723 1.723 0 0 1-.68.14H12V13h2v-1h10.17A1.837 1.837 0 0 1 26 13.833z" opacity=".1"/><path d="M25 14.833v21.33a1.629 1.629 0 0 1-.15.7A1.822 1.822 0 0 1 23.17 38H12V13h11.17a1.679 1.679 0 0 1 .83.21 1.818 1.818 0 0 1 1 1.623z" opacity=".2"/><path d="M25 14.833v19.33A1.846 1.846 0 0 1 23.17 36H12V13h11.17a1.679 1.679 0 0 1 .83.21 1.818 1.818 0 0 1 1 1.623z" opacity=".2"/><path d="M24 14.833v19.33A1.839 1.839 0 0 1 22.17 36H12V13h10.17A1.831 1.831 0 0 1 24 14.833z" opacity=".2"/><rect x="2" y="13" width="22" height="22" rx="1.833" fill="#0f78d4"/><path d="M8.074 20.9a4.978 4.978 0 0 1 1.957-2.161 5.912 5.912 0 0 1 3.11-.78 5.5 5.5 0 0 1 2.876.74 4.935 4.935 0 0 1 1.905 2.065 6.676 6.676 0 0 1 .667 3.037 7.031 7.031 0 0 1-.687 3.178 5.057 5.057 0 0 1-1.961 2.138 5.72 5.72 0 0 1-2.985.759 5.638 5.638 0 0 1-2.941-.747 5.015 5.015 0 0 1-1.929-2.069 6.51 6.51 0 0 1-.675-3 7.217 7.217 0 0 1 .663-3.16zm2.085 5.075a3.24 3.24 0 0 0 1.1 1.422 2.872 2.872 0 0 0 1.72.518 3.021 3.021 0 0 0 1.836-.534 3.1 3.1 0 0 0 1.069-1.426 5.531 5.531 0 0 0 .341-1.985 6.038 6.038 0 0 0-.321-2.009 3.184 3.184 0 0 0-1.033-1.479 2.85 2.85 0 0 0-1.82-.562 2.974 2.974 0 0 0-1.76.522 3.285 3.285 0 0 0-1.125 1.435 5.225 5.225 0 0 0-.385 2.053 5.279 5.279 0 0 0 .378 2.044z" fill="#fff"/><path fill="#50d9ff" d="M34 10h9v9h-9z"/></svg>