<svg xmlns="http://www.w3.org/2000/svg" viewBox="0 0 48 48"><circle cx="24" cy="15" r="12" fill="#036c70"/><circle cx="34" cy="26" r="11" fill="#1a9ba1"/><circle cx="25.5" cy="36.5" r="8.5" fill="#37c6d0"/><path fill="none" d="M0 0h48v48H0z"/><path d="M26 13.83v21.34a1.841 1.841 0 0 1-1.14 1.69 1.772 1.772 0 0 1-.69.14h-7.16c-.01-.17-.01-.33-.01-.5a4.18 4.18 0 0 1 .02-.5 8.473 8.473 0 0 1 5.09-7.29v-1.86A11.986 11.986 0 0 1 12.17 13a8.455 8.455 0 0 1 .21-1h11.79A1.837 1.837 0 0 1 26 13.83z" opacity=".1"/><path d="M23.17 13h-11a11.987 11.987 0 0 0 10.4 13.915c-3.1 1.47-5.359 5.645-5.551 9.085a4.18 4.18 0 0 0-.02.5c0 .17 0 .33.01.5a6.673 6.673 0 0 0 .13 1h6.03a1.841 1.841 0 0 0 1.69-1.14 1.772 1.772 0 0 0 .14-.69V14.83A1.837 1.837 0 0 0 23.17 13z" opacity=".2"/><path d="M23.17 13h-11a11.988 11.988 0 0 0 10.208 13.891c-3 1.576-5.17 5.741-5.358 9.109h6.15A1.844 1.844 0 0 0 25 34.17V14.83A1.837 1.837 0 0 0 23.17 13z" opacity=".2"/><path d="M22.17 13h-10a11.988 11.988 0 0 0 8.87 13.632A16.522 16.522 0 0 0 17.02 36h5.15A1.837 1.837 0 0 0 24 34.17V14.83A1.831 1.831 0 0 0 22.17 13z" opacity=".2"/><rect x="2" y="13" width="22" height="22" rx="1.833" fill="#038387"/><path d="M10.382 23.791a3.153 3.153 0 0 1-.982-1.037 2.819 2.819 0 0 1-.341-1.418A2.727 2.727 0 0 1 9.7 19.5a3.752 3.752 0 0 1 1.687-1.1 7.144 7.144 0 0 1 2.306-.357 8.761 8.761 0 0 1 3.038.426v2.145a4.75 4.75 0 0 0-1.374-.562 6.653 6.653 0 0 0-1.608-.193 3.484 3.484 0 0 0-1.651.349 1.086 1.086 0 0 0-.655.993 1 1 0 0 0 .278.7 2.5 2.5 0 0 0 .747.534q.47.234 1.4.619a1.426 1.426 0 0 1 .2.08 11.592 11.592 0 0 1 1.768.872 3.163 3.163 0 0 1 1.044 1.053 3.042 3.042 0 0 1 .378 1.587 2.952 2.952 0 0 1-.595 1.912 3.32 3.32 0 0 1-1.591 1.069 7.22 7.22 0 0 1-2.266.329 12.01 12.01 0 0 1-2.053-.168 7.069 7.069 0 0 1-1.667-.483v-2.264a5.355 5.355 0 0 0 1.687.8 6.587 6.587 0 0 0 1.857.3 3.2 3.2 0 0 0 1.683-.357 1.129 1.129 0 0 0 .566-1.009 1.075 1.075 0 0 0-.317-.771 3.23 3.23 0 0 0-.876-.611q-.558-.28-1.651-.739a9.4 9.4 0 0 1-1.653-.863z" fill="#fff"/></svg>