<?xml version="1.0" encoding="utf-8"?>
<!-- Generator: Adobe Illustrator 23.1.0, SVG Export Plug-In . SVG Version: 6.00 Build 0)  -->
<svg version="1.1" id="Layer_1" xmlns="http://www.w3.org/2000/svg" xmlns:xlink="http://www.w3.org/1999/xlink" x="0px" y="0px"
	 viewBox="0 0 60.9 60.9" style="enable-background:new 0 0 60.9 60.9;" xml:space="preserve">
<style type="text/css">
	.st0{fill:#28A8EA;}
	.st1{fill:#0078D4;}
	.st2{fill:#50D9FF;}
	.st3{opacity:0.2;enable-background:new    ;}
	.st4{opacity:0.1;enable-background:new    ;}
	.st5{fill:#FFFFFF;}
</style>
<title>Exchange_64x</title>
<path class="st0" d="M54,6.5H41.8c-0.9,0-1.8,0.4-2.5,1L10.5,36.3c-0.7,0.7-1,1.5-1,2.5V51c0,1.9,1.6,3.5,3.5,3.5c0,0,0,0,0,0h12.2
	c0.9,0,1.8-0.4,2.5-1l28.8-28.8c0.7-0.7,1-1.5,1-2.5V10C57.5,8,55.9,6.5,54,6.5C54,6.5,54,6.5,54,6.5z"/>
<path class="st1" d="M54,54.5H41.8c-0.9,0-1.8-0.4-2.5-1l-5.8-5.8V36.7c0-3.4,2.8-6.2,6.2-6.2h0h10.9l5.8,5.8c0.7,0.7,1,1.5,1,2.5
	V51C57.5,52.9,55.9,54.5,54,54.5L54,54.5z"/>
<path class="st2" d="M13,6.5h12.2c0.9,0,1.8,0.4,2.5,1l5.8,5.8v10.9c0,3.4-2.8,6.2-6.2,6.2l0,0H16.3l-5.8-5.8c-0.7-0.7-1-1.5-1-2.5
	V10C9.5,8,11,6.5,13,6.5z"/>
<path class="st3" d="M31.5,18.8v26.3c0,0.1,0,0.3,0,0.4c-0.2,1.1-1.2,1.9-2.3,1.9H9.5v-31h19.7C30.4,16.5,31.5,17.5,31.5,18.8
	C31.5,18.8,31.5,18.8,31.5,18.8z"/>
<path class="st4" d="M32.5,18.8v24.3c0,1.8-1.5,3.3-3.3,3.3H9.5v-31h19.7C31,15.5,32.5,17,32.5,18.8z"/>
<path class="st3" d="M31.5,18.8v24.3c0,1.3-1,2.3-2.3,2.3c0,0,0,0,0,0H9.5v-29h19.7C30.4,16.5,31.5,17.5,31.5,18.8
	C31.5,18.8,31.5,18.8,31.5,18.8z"/>
<path class="st4" d="M30.5,18.8v24.3c0,1.3-1,2.3-2.3,2.3c0,0,0,0,0,0H9.5v-29h18.7C29.4,16.5,30.5,17.5,30.5,18.8
	C30.5,18.8,30.5,18.8,30.5,18.8z"/>
<path class="st1" d="M4.8,16.5h23.3c1.3,0,2.3,1,2.3,2.3v23.3c0,1.3-1,2.3-2.3,2.3H4.8c-1.3,0-2.3-1-2.3-2.3V18.8
	C2.5,17.5,3.5,16.5,4.8,16.5z"/>
<path class="st5" d="M21,25.3h-6.5v3.8h6.1v2.5h-6.1v4h6.9V38h-9.9V22.9H21L21,25.3z"/>
</svg>
