<?xml version="1.0" encoding="utf-8"?>
<!-- Generator: Adobe Illustrator 24.0.1, SVG Export Plug-In . SVG Version: 6.00 Build 0)  -->
<svg version="1.1" id="Layer_1" xmlns="http://www.w3.org/2000/svg" xmlns:xlink="http://www.w3.org/1999/xlink" x="0px" y="0px"
	 viewBox="0 0 32 32" style="enable-background:new 0 0 32 32;" xml:space="preserve">
<style type="text/css">
	.st0{fill:#940E16;}
	.st1{fill:url(#F_3_);}
	.st2{fill:url(#F_4_);}
	.st3{fill:url(#SVGID_1_);}
	.st4{opacity:0.18;}
	.st5{opacity:0.18;enable-background:new    ;}
	.st6{fill:#FFFFFF;}
	.st7{fill:url(#SVGID_2_);}
	.st8{fill:#FFB7BB;}
	.st9{fill:#F87E86;}
</style>
<g>
	<path id="F" class="st0" d="M30.6,7h-2.2C27.6,7,27,7.6,27,8.4c0,0,0,0,0,0v18.2c0,0.8,0.6,1.4,1.4,1.4c0,0,0,0,0,0h2.2
		c0.8,0,1.4-0.6,1.4-1.4l0,0V8.4C32,7.6,31.4,7,30.6,7C30.6,7,30.6,7,30.6,7L30.6,7z"/>
</g>
<g>
	
		<linearGradient id="F_3_" gradientUnits="userSpaceOnUse" x1="27" y1="16.5" x2="32" y2="16.5" gradientTransform="matrix(1 0 0 -1 0 34)">
		<stop  offset="0.33" style="stop-color:#000000"/>
		<stop  offset="1" style="stop-color:#000000;stop-opacity:0"/>
	</linearGradient>
	<path id="F_1_" class="st1" d="M30.6,7h-2.2C27.6,7,27,7.6,27,8.4c0,0,0,0,0,0v18.2c0,0.8,0.6,1.4,1.4,1.4c0,0,0,0,0,0h2.2
		c0.8,0,1.4-0.6,1.4-1.4l0,0V8.4C32,7.6,31.4,7,30.6,7C30.6,7,30.6,7,30.6,7L30.6,7z"/>
</g>
<g>
	
		<linearGradient id="F_4_" gradientUnits="userSpaceOnUse" x1="27" y1="16.5" x2="32" y2="16.5" gradientTransform="matrix(1 0 0 -1 0 34)">
		<stop  offset="0.29" style="stop-color:#000000"/>
		<stop  offset="0.51" style="stop-color:#000000;stop-opacity:0"/>
	</linearGradient>
	<path id="F_2_" class="st2" d="M30.6,7h-2.2C27.6,7,27,7.6,27,8.4c0,0,0,0,0,0v18.2c0,0.8,0.6,1.4,1.4,1.4c0,0,0,0,0,0h2.2
		c0.8,0,1.4-0.6,1.4-1.4l0,0V8.4C32,7.6,31.4,7,30.6,7C30.6,7,30.6,7,30.6,7L30.6,7z"/>
</g>
<linearGradient id="SVGID_1_" gradientUnits="userSpaceOnUse" x1="23.6978" y1="2.072" x2="5.9191" y2="32.8597" gradientTransform="matrix(1 0 0 -1 0 34)">
	<stop  offset="0" style="stop-color:#E21C2C"/>
	<stop  offset="0.5" style="stop-color:#F03442"/>
	<stop  offset="1" style="stop-color:#F5535E"/>
</linearGradient>
<path class="st3" d="M29,26.5V5.3c0-0.4-0.1-0.7-0.4-0.9C28.4,4.1,28,4,27.7,4H1.3C1,4,0.6,4.1,0.4,4.4C0.1,4.6,0,5,0,5.3v21.3
	c0,0.4,0.1,0.7,0.4,0.9C0.6,27.9,1,28,1.3,28h29.2C29.7,28,29,27.3,29,26.5z"/>
<g class="st4">
	<path class="st5" d="M25.4,7.3H3.6C3.3,7.3,3,7.7,3,8.1v1.5c0,0.4,0.3,0.7,0.6,0.8h21.7c0.4,0,0.7-0.4,0.6-0.8V8.1
		C26,7.7,25.7,7.3,25.4,7.3z"/>
	<path class="st5" d="M13.3,13.3H3.7C3.3,13.3,3,13.6,3,14v9.6c0,0.4,0.3,0.7,0.7,0.7c0,0,0,0,0,0h9.6c0.4,0,0.7-0.3,0.7-0.7l0,0V14
		C14,13.6,13.7,13.3,13.3,13.3L13.3,13.3z"/>
	<path class="st5" d="M25.4,13.3h-7.9c-0.3,0-0.6,0.3-0.6,0.8v7.5c0,0.4,0.3,0.8,0.6,0.8h7.9c0.3,0,0.6-0.3,0.6-0.8V14
		C26,13.6,25.8,13.3,25.4,13.3z"/>
</g>
<path class="st6" d="M25.3,7H3.8C3.3,7,3,7.3,3,7.8v1.5C3,9.7,3.3,10,3.8,10h21.5c0.4,0,0.8-0.3,0.8-0.8V7.8C26,7.3,25.7,7,25.3,7z"
	/>
<linearGradient id="SVGID_2_" gradientUnits="userSpaceOnUse" x1="16.0636" y1="2.4021" x2="6.3136" y2="19.3021" gradientTransform="matrix(1 0 0 -1 0 34)">
	<stop  offset="0" style="stop-color:#CCCCCC"/>
	<stop  offset="1" style="stop-color:#FFFFFF"/>
</linearGradient>
<path class="st7" d="M13.3,13H3.7C3.3,13,3,13.3,3,13.7v9.6C3,23.7,3.3,24,3.7,24c0,0,0,0,0,0h9.6c0.4,0,0.7-0.3,0.7-0.7l0,0v-9.6
	C14,13.3,13.7,13,13.3,13L13.3,13z"/>
<path class="st6" d="M17.6,13h7.7c0.4,0,0.6,0.3,0.6,0.6V16h-9v-2.4C17,13.3,17.3,13,17.6,13z"/>
<path class="st8" d="M26,16h-9v3h9V16z"/>
<path class="st9" d="M17,19h9v2.4c0,0.4-0.3,0.6-0.6,0.6h-7.7c-0.4,0-0.6-0.3-0.6-0.6C17,21.4,17,19,17,19z"/>
</svg>
