<svg id="Layer_1" data-name="Layer 1" xmlns="http://www.w3.org/2000/svg" viewBox="0 0 32 32"><defs><style>.cls-1{fill:#036c70}.cls-4{opacity:.2}.cls-7{fill:#1a9ba1}</style></defs><g id="_32" data-name="32"><path class="cls-1" d="M32 15L21 9 8 15v12.67A1.34 1.34 0 009.33 29h21.34A1.34 1.34 0 0032 27.67z"/><path d="M30.67 2H9.33A1.34 1.34 0 008 3.33V16h24V3.33A1.34 1.34 0 0030.67 2z" fill="#37c6d0"/><path d="M16.67 7H8v19h8.67A1.34 1.34 0 0018 24.67V8.33A1.34 1.34 0 0016.67 7z" opacity=".1"/><path class="cls-4" d="M15.67 8H8v19h7.67A1.34 1.34 0 0017 25.67V9.33A1.34 1.34 0 0015.67 8z"/><path class="cls-4" d="M15.67 8H8v17h7.67A1.34 1.34 0 0017 23.67V9.33A1.34 1.34 0 0015.67 8z"/><path class="cls-4" d="M14.67 8H8v17h6.67A1.34 1.34 0 0016 23.67V9.33A1.34 1.34 0 0014.67 8z"/><rect id="Back_Plate" data-name="Back Plate" y="8" width="16" height="16" rx="1.33" fill="#038387"/><path fill="none" d="M0 0h32v32H0z"/></g><path class="cls-7" d="M21 19h8v8h-8z"/><circle class="cls-7" cx="25" cy="9" r="5"/><circle class="cls-1" cx="25" cy="9" r="3"/><path d="M11.29 12.62H7v2.73h4V17H7v4H5V11h6.29z" fill="#fff"/></svg>